<svg xmlns="http://www.w3.org/2000/svg" viewBox="0 0 256 256">
  <defs>
    <radialGradient id="g" cx="50%" cy="50%" r="75%">
      <stop offset="0%" stop-color="#00ff41" stop-opacity="1"/>
      <stop offset="60%" stop-color="#00ff41" stop-opacity="0.6"/>
      <stop offset="100%" stop-color="#00ff41" stop-opacity="0.2"/>
    </radialGradient>
    <filter id="glow">
      <feGaussianBlur stdDeviation="3" result="b"/>
      <feMerge>
        <feMergeNode in="b"/><feMergeNode in="SourceGraphic"/>
      </feMerge>
    </filter>
  </defs>
  <rect width="256" height="256" fill="#000"/>
  <g filter="url(#glow)">
    <circle cx="128" cy="128" r="96" fill="url(#g)" opacity="0.25"/>
    <path d="M64 80h128v16H64zM64 112h128v8H64zM64 144h128v6H64zM64 168h128v4H64z" fill="#0a0" opacity="0.35"/>
    <path d="M88 188h80" stroke="#00ff41" stroke-width="2" stroke-linecap="round" opacity="0.6"/>
    <path d="M88 72h80" stroke="#00ff41" stroke-width="2" stroke-linecap="round" opacity="0.6"/>
    <path d="M92 92c0-22 18-40 40-40s40 18 40 40-18 40-40 40c-8 0-15-2-21-6l-27 27-14-14 27-27c-4-6-5-13-5-20z" fill="none" stroke="#00ff41" stroke-width="6"/>
    <text x="128" y="208" text-anchor="middle" font-family="VT323, 'Share Tech Mono', monospace" font-size="20" fill="#9fffb1">GeoGuesser</text>
  </g>
</svg>